<?xml version="1.0" encoding="UTF-8" standalone="no"?>
<svg
   width="168.13391"
   height="307.76172"
   viewBox="0 0 168.13391 307.76172"
   version="1.1"
   xml:space="preserve"
   id="SVGRoot"
   inkscape:version="1.4 (86a8ad7, 2024-10-11)"
   sodipodi:docname="tests-logo.svg"
   inkscape:export-filename="tests-logo8.svg"
   inkscape:export-xdpi="96"
   inkscape:export-ydpi="96"
   inkscape:export-batch-path="C:\Users\Etienne\projects"
   inkscape:export-batch-name="tests-logo-13"
   xmlns:inkscape="http://www.inkscape.org/namespaces/inkscape"
   xmlns:sodipodi="http://sodipodi.sourceforge.net/DTD/sodipodi-0.dtd"
   xmlns="http://www.w3.org/2000/svg"
   xmlns:svg="http://www.w3.org/2000/svg"><sodipodi:namedview
   pagecolor="#a9a9a9"
   bordercolor="#292929"
   borderopacity="1"
   inkscape:showpageshadow="2"
   inkscape:pageopacity="0.0"
   inkscape:pagecheckerboard="0"
   inkscape:deskcolor="#232323"
   id="namedview1"
   inkscape:zoom="45.254835"
   inkscape:cx="392.42216"
   inkscape:cy="365.80622"
   inkscape:window-width="1920"
   inkscape:window-height="1057"
   inkscape:window-x="1072"
   inkscape:window-y="828"
   inkscape:window-maximized="1"
   inkscape:current-layer="layer7" /><defs
   id="defs2"><linearGradient
     id="swatch2"
     inkscape:swatch="solid"><stop
       style="stop-color:#000000;stop-opacity:1;"
       offset="0"
       id="stop2" /></linearGradient></defs>

<style
   type="text/css"
   id="style1">
g.prefab path {
  vector-effect:non-scaling-stroke;
  -inkscape-stroke:hairline;
  fill: none;
  fill-opacity: 1;
  stroke-opacity: 1;
  stroke: #00349c;
}
</style>

<g
   inkscape:groupmode="layer"
   id="layer7-8"
   inkscape:label="wip"
   style="display:inline"
   transform="translate(-383.7003,-224.98678)"><path
     d="m 383.90309,224.98678 -0.20279,307.76172 132.16993,-75.74422 -0.33709,-69.97644 0.35208,-85.3369 z m 35.9178,62.52344 60.61314,34.71875 v 113.38086 l -60.61314,34.71484 z"
     style="display:inline;fill:#07a06a;fill-opacity:1;stroke:none;stroke-width:1px"
     id="path100"
     sodipodi:nodetypes="ccccccccccc" /><path
     d="m 551.83421,225.33843 -35.82617,20.04493 -30.14062,17.44922 -20.54493,11.89453 -9.3457,5.41015 -26.52148,15.35352 -9.63442,5.41015 v 30.61719 10.95703 30.52735 41.50781 41.44531 l 36.02886,20.77735 29.86718,17.33984 30.11719,17.48242 35.81446,20.79297 0.0273,-41.63281 0.0273,-41.49219 0.0273,-41.46484 0.0273,-41.4668 -35.81445,-20.73242 -0.0762,-0.0449 -29.89795,24.20508 -0.2168,0.17383 v 0.0312 l -5.36278,4.14184 0.0444,41.24683 5.34768,-4.22071 0.0195,0.0117 29.6875,-24.07226 0.38037,69.97265 -0.002,3.75195 v 9.23047 0.60742 l -0.006,-0.004 -30.11719,-17.86133 -12.66748,-7.48437 -17.19971,-9.98633 0.0254,-41.49219 0.0273,-41.4668 0.0195,-30.58984 0.0312,-0.0156 9.36328,-5.42773 20.49609,-11.88281 15.3457,-8.89649 14.68165,-8.51172 v 0.0488 l 0.11328,-0.0645 -0.0957,14.73242 35.89844,20.69922 0.0391,-56.18164 z"
     style="display:inline;fill:#ffd743;fill-opacity:1;stroke:none;stroke-width:0.999996px"
     id="path1"
     sodipodi:nodetypes="cccccccccccccccccccccccccccccccccccccccccccccccccccc" /></g></svg>
